<svg width="97" height="30" viewBox="0 0 97 30" fill="none" xmlns="http://www.w3.org/2000/svg">
<path d="M23.6836 0.5625V29H17.8242L6.39844 9.9375V29H0.539062V0.5625H6.39844L17.8438 19.6445V0.5625H23.6836ZM38.1562 29.3906C36.5156 29.3906 35.0443 29.1302 33.7422 28.6094C32.4401 28.0755 31.3333 27.3398 30.4219 26.4023C29.5234 25.4648 28.8333 24.3776 28.3516 23.1406C27.8698 21.8906 27.6289 20.5625 27.6289 19.1562V18.375C27.6289 16.7734 27.8568 15.3086 28.3125 13.9805C28.7682 12.6523 29.4193 11.5 30.2656 10.5234C31.125 9.54688 32.1667 8.79818 33.3906 8.27734C34.6146 7.74349 35.9948 7.47656 37.5312 7.47656C39.0286 7.47656 40.3568 7.72396 41.5156 8.21875C42.6745 8.71354 43.6445 9.41667 44.4258 10.3281C45.2201 11.2396 45.819 12.3333 46.2227 13.6094C46.6263 14.8724 46.8281 16.2786 46.8281 17.8281V20.1719H30.0312V16.4219H41.3008V15.9922C41.3008 15.2109 41.1576 14.5143 40.8711 13.9023C40.5977 13.2773 40.181 12.7826 39.6211 12.418C39.0612 12.0534 38.3451 11.8711 37.4727 11.8711C36.7305 11.8711 36.0924 12.0339 35.5586 12.3594C35.0247 12.6849 34.5885 13.1406 34.25 13.7266C33.9245 14.3125 33.6771 15.0026 33.5078 15.7969C33.3516 16.5781 33.2734 17.4375 33.2734 18.375V19.1562C33.2734 20.0026 33.3906 20.7839 33.625 21.5C33.8724 22.2161 34.2174 22.8346 34.6602 23.3555C35.1159 23.8763 35.6628 24.2799 36.3008 24.5664C36.9518 24.8529 37.6875 24.9961 38.5078 24.9961C39.5234 24.9961 40.4674 24.8008 41.3398 24.4102C42.2253 24.0065 42.987 23.401 43.625 22.5938L46.3594 25.5625C45.9167 26.2005 45.3112 26.8125 44.543 27.3984C43.7878 27.9844 42.8763 28.4661 41.8086 28.8438C40.7409 29.2083 39.5234 29.3906 38.1562 29.3906ZM56.0664 23.5312L60.4609 7.86719H64.0352L62.8828 14.0195L58.4883 29H55.5L56.0664 23.5312ZM53.8398 7.86719L56.9844 23.5117L57.2773 29H53.7617L48.4102 7.86719H53.8398ZM68.0586 23.2578L71.125 7.86719H76.5742L71.2227 29H67.7266L68.0586 23.2578ZM64.5234 7.86719L68.8984 23.4141L69.5039 29H66.4961L62.1016 14.0391L60.9883 7.86719H64.5234ZM90.832 23.1602C90.832 22.7565 90.7148 22.3919 90.4805 22.0664C90.2461 21.7409 89.8099 21.4414 89.1719 21.168C88.5469 20.8815 87.6419 20.6211 86.457 20.3867C85.3893 20.1523 84.3932 19.8594 83.4688 19.5078C82.5573 19.1432 81.763 18.707 81.0859 18.1992C80.4219 17.6914 79.901 17.0924 79.5234 16.4023C79.1458 15.6992 78.957 14.8984 78.957 14C78.957 13.1146 79.1458 12.2812 79.5234 11.5C79.9141 10.7188 80.4674 10.0286 81.1836 9.42969C81.9128 8.81771 82.7982 8.34245 83.8398 8.00391C84.8945 7.65234 86.0794 7.47656 87.3945 7.47656C89.2305 7.47656 90.806 7.76953 92.1211 8.35547C93.4492 8.94141 94.4648 9.7487 95.168 10.7773C95.8841 11.793 96.2422 12.9518 96.2422 14.2539H90.6172C90.6172 13.707 90.5 13.2188 90.2656 12.7891C90.0443 12.3464 89.6927 12.0013 89.2109 11.7539C88.7422 11.4935 88.1302 11.3633 87.375 11.3633C86.75 11.3633 86.2096 11.474 85.7539 11.6953C85.2982 11.9036 84.9466 12.1901 84.6992 12.5547C84.4648 12.9062 84.3477 13.2969 84.3477 13.7266C84.3477 14.0521 84.4128 14.3451 84.543 14.6055C84.6862 14.8529 84.9141 15.0807 85.2266 15.2891C85.5391 15.4974 85.9427 15.6927 86.4375 15.875C86.9453 16.0443 87.5703 16.2005 88.3125 16.3438C89.8359 16.6562 91.1966 17.0664 92.3945 17.5742C93.5924 18.069 94.543 18.7461 95.2461 19.6055C95.9492 20.4518 96.3008 21.5651 96.3008 22.9453C96.3008 23.8828 96.0924 24.7422 95.6758 25.5234C95.2591 26.3047 94.6602 26.9883 93.8789 27.5742C93.0977 28.1471 92.1602 28.5964 91.0664 28.9219C89.9857 29.2344 88.7682 29.3906 87.4141 29.3906C85.4479 29.3906 83.7812 29.0391 82.4141 28.3359C81.0599 27.6328 80.0312 26.7409 79.3281 25.6602C78.638 24.5664 78.293 23.4466 78.293 22.3008H83.625C83.651 23.069 83.8464 23.6875 84.2109 24.1562C84.5885 24.625 85.0638 24.9635 85.6367 25.1719C86.2227 25.3802 86.8542 25.4844 87.5312 25.4844C88.2604 25.4844 88.8659 25.3867 89.3477 25.1914C89.8294 24.9831 90.194 24.7096 90.4414 24.3711C90.7018 24.0195 90.832 23.6159 90.832 23.1602Z" fill="black"/>
</svg>
